<svg width="12" height="14" viewBox="0 0 12 14" fill="none" xmlns="http://www.w3.org/2000/svg">
<path d="M3.47091 3.19982C3.12647 3.19982 2.83491 3.0776 2.59625 2.83315C2.35714 2.58871 2.23758 2.29982 2.23758 1.96649C2.23758 1.62204 2.35714 1.33027 2.59625 1.09115C2.83491 0.852488 3.12647 0.733154 3.47091 0.733154C3.80425 0.733154 4.09314 0.852488 4.33758 1.09115C4.58203 1.33027 4.70425 1.62204 4.70425 1.96649C4.70425 2.29982 4.58203 2.58871 4.33758 2.83315C4.09314 3.0776 3.80425 3.19982 3.47091 3.19982ZM7.33758 11.9998H3.20425C2.87091 11.9998 2.56536 11.886 2.28758 11.6585C2.0098 11.4305 1.83758 11.1443 1.77091 10.7998L0.354248 3.66649H1.37091L2.80425 10.7998C2.81536 10.8443 2.84603 10.8887 2.89625 10.9332C2.94603 10.9776 2.99314 10.9998 3.03758 10.9998H7.33758V11.9998ZM10.8709 13.4665L9.03758 10.3332H4.32091C4.04314 10.3332 3.80136 10.2472 3.59558 10.0752C3.39025 9.90271 3.25425 9.6776 3.18758 9.39982L2.43758 5.74982C2.32647 5.26093 2.44047 4.83315 2.77958 4.46649C3.11825 4.09982 3.52091 3.91649 3.98758 3.91649C4.33203 3.91649 4.64869 4.01915 4.93758 4.22449C5.22647 4.43027 5.41536 4.71649 5.50425 5.08315L6.27091 8.66649H8.58758C8.78758 8.66649 8.97647 8.71938 9.15425 8.82516C9.33203 8.93049 9.47647 9.07204 9.58758 9.24982L11.7376 12.9665L10.8709 13.4665Z" fill="black" fill-opacity="0.88"/>
</svg>
