<svg width="12" height="14" viewBox="0 0 12 14" fill="none" xmlns="http://www.w3.org/2000/svg">
<path d="M3.47116 3.19982C3.12671 3.19982 2.83516 3.0776 2.59649 2.83315C2.35738 2.58871 2.23783 2.29982 2.23783 1.96649C2.23783 1.62204 2.35738 1.33027 2.59649 1.09115C2.83516 0.852488 3.12671 0.733154 3.47116 0.733154C3.80449 0.733154 4.09338 0.852488 4.33783 1.09115C4.58227 1.33027 4.70449 1.62204 4.70449 1.96649C4.70449 2.29982 4.58227 2.58871 4.33783 2.83315C4.09338 3.0776 3.80449 3.19982 3.47116 3.19982ZM7.33783 11.9998H3.20449C2.87116 11.9998 2.5656 11.886 2.28783 11.6585C2.01005 11.4305 1.83783 11.1443 1.77116 10.7998L0.354492 3.66649H1.37116L2.80449 10.7998C2.8156 10.8443 2.84627 10.8887 2.89649 10.9332C2.94627 10.9776 2.99338 10.9998 3.03783 10.9998H7.33783V11.9998ZM10.8712 13.4665L9.03782 10.3332H4.32116C4.04338 10.3332 3.8016 10.2472 3.59583 10.0752C3.39049 9.90271 3.25449 9.6776 3.18783 9.39982L2.43783 5.74982C2.32671 5.26093 2.44071 4.83315 2.77983 4.46649C3.11849 4.09982 3.52116 3.91649 3.98783 3.91649C4.33227 3.91649 4.64894 4.01915 4.93782 4.22449C5.22671 4.43027 5.4156 4.71649 5.50449 5.08315L6.27116 8.66649H8.58782C8.78783 8.66649 8.97671 8.71938 9.15449 8.82516C9.33227 8.93049 9.47671 9.07204 9.58782 9.24982L11.7378 12.9665L10.8712 13.4665Z" fill="white" fill-opacity="0.88"/>
</svg>
