<svg width="12" height="20" viewBox="0 0 12 20" fill="none" xmlns="http://www.w3.org/2000/svg">
<path d="M2.57539 18.9375L10.9004 10.6375C10.9837 10.5541 11.0461 10.4581 11.0874 10.3495C11.1294 10.2415 11.1504 10.1291 11.1504 10.0125C11.1504 9.89578 11.1294 9.78312 11.0874 9.67445C11.0461 9.56645 10.9837 9.47078 10.9004 9.38745L2.57539 1.06245C2.37539 0.862451 2.14206 0.762451 1.87539 0.762451C1.60872 0.762451 1.36706 0.870785 1.15039 1.08745C0.950391 1.27078 0.850391 1.49978 0.850391 1.77445C0.850391 2.04978 0.950391 2.28745 1.15039 2.48745L8.70039 10.0125L1.15039 17.5625C0.967057 17.7458 0.875391 17.9708 0.875391 18.2375C0.875391 18.5041 0.975391 18.7374 1.17539 18.9375C1.37539 19.1375 1.60872 19.2375 1.87539 19.2375C2.14206 19.2375 2.37539 19.1375 2.57539 18.9375Z" fill="white" fill-opacity="0.88"/>
</svg>
