<svg width="12" height="20" viewBox="0 0 12 20" fill="none" xmlns="http://www.w3.org/2000/svg">
<path d="M2.5749 18.9375L10.8999 10.6375C10.9832 10.5541 11.0456 10.4581 11.0869 10.3495C11.1289 10.2415 11.1499 10.1291 11.1499 10.0125C11.1499 9.89578 11.1289 9.78312 11.0869 9.67445C11.0456 9.56645 10.9832 9.47078 10.8999 9.38745L2.5749 1.06245C2.3749 0.862451 2.14157 0.762451 1.8749 0.762451C1.60824 0.762451 1.36657 0.870785 1.1499 1.08745C0.949903 1.27078 0.849903 1.49978 0.849903 1.77445C0.849903 2.04978 0.949903 2.28745 1.1499 2.48745L8.6999 10.0125L1.1499 17.5625C0.966569 17.7458 0.874903 17.9708 0.874903 18.2375C0.874903 18.5041 0.974903 18.7374 1.1749 18.9375C1.3749 19.1375 1.60824 19.2375 1.8749 19.2375C2.14157 19.2375 2.3749 19.1375 2.5749 18.9375Z" fill="black" fill-opacity="0.88"/>
</svg>
