<svg width="12" height="20" viewBox="0 0 12 20" fill="none" xmlns="http://www.w3.org/2000/svg">
<path d="M9.4251 18.9375L1.1001 10.6375C1.01676 10.5541 0.954431 10.4581 0.913098 10.3495C0.871098 10.2415 0.850098 10.1291 0.850098 10.0125C0.850098 9.89578 0.871098 9.78312 0.913098 9.67445C0.954431 9.56645 1.01676 9.47078 1.1001 9.38745L9.4251 1.06245C9.6251 0.862451 9.85843 0.762451 10.1251 0.762451C10.3918 0.762451 10.6334 0.870785 10.8501 1.08745C11.0501 1.27078 11.1501 1.49978 11.1501 1.77445C11.1501 2.04978 11.0501 2.28745 10.8501 2.48745L3.3001 10.0125L10.8501 17.5625C11.0334 17.7458 11.1251 17.9708 11.1251 18.2375C11.1251 18.5041 11.0251 18.7374 10.8251 18.9375C10.6251 19.1375 10.3918 19.2375 10.1251 19.2375C9.85843 19.2375 9.6251 19.1375 9.4251 18.9375Z" fill="black" fill-opacity="0.88"/>
</svg>
