<svg width="12" height="20" viewBox="0 0 12 20" fill="none" xmlns="http://www.w3.org/2000/svg">
<path d="M9.42461 18.9377L1.09961 10.6377C1.01628 10.5544 0.953943 10.4584 0.912609 10.3497C0.870609 10.2417 0.849609 10.1294 0.849609 10.0127C0.849609 9.89603 0.870609 9.78336 0.912609 9.6747C0.953943 9.5667 1.01628 9.47103 1.09961 9.3877L9.42461 1.0627C9.62461 0.862695 9.85794 0.762695 10.1246 0.762695C10.3913 0.762695 10.6329 0.871029 10.8496 1.0877C11.0496 1.27103 11.1496 1.50003 11.1496 1.7747C11.1496 2.05003 11.0496 2.2877 10.8496 2.4877L3.29961 10.0127L10.8496 17.5627C11.0329 17.746 11.1246 17.971 11.1246 18.2377C11.1246 18.5044 11.0246 18.7377 10.8246 18.9377C10.6246 19.1377 10.3913 19.2377 10.1246 19.2377C9.85794 19.2377 9.62461 19.1377 9.42461 18.9377Z" fill="white" fill-opacity="0.88"/>
</svg>
