<svg width="18" height="20" viewBox="0 0 18 20" fill="none" xmlns="http://www.w3.org/2000/svg">
<path d="M4.25 15.625H10.75V14.125H4.25V15.625ZM4.25 11.75H13.75V10.25H4.25V11.75ZM4.25 7.875H13.75V6.375H4.25V7.875ZM2.3 18H15.7C15.7667 18 15.8333 17.9667 15.9 17.9C15.9667 17.8333 16 17.7667 16 17.7V4.3C16 4.23333 15.9667 4.16667 15.9 4.1C15.8333 4.03333 15.7667 4 15.7 4H2.3C2.23333 4 2.16667 4.03333 2.1 4.1C2.03333 4.16667 2 4.23333 2 4.3V17.7C2 17.7667 2.03333 17.8333 2.1 17.9C2.16667 17.9667 2.23333 18 2.3 18ZM2.3 19.5C1.8 19.5 1.375 19.325 1.025 18.975C0.675 18.625 0.5 18.2 0.5 17.7V4.3C0.5 3.8 0.675 3.375 1.025 3.025C1.375 2.675 1.8 2.5 2.3 2.5H6.75C6.81667 1.95 7.06267 1.479 7.488 1.087C7.91267 0.695667 8.41667 0.5 9 0.5C9.6 0.5 10.1083 0.695667 10.525 1.087C10.9417 1.479 11.1833 1.95 11.25 2.5H15.7C16.2 2.5 16.625 2.675 16.975 3.025C17.325 3.375 17.5 3.8 17.5 4.3V17.7C17.5 18.2 17.325 18.625 16.975 18.975C16.625 19.325 16.2 19.5 15.7 19.5H2.3ZM9 3.35C9.21667 3.35 9.396 3.279 9.538 3.137C9.67933 2.99567 9.75 2.81667 9.75 2.6C9.75 2.38333 9.67933 2.204 9.538 2.062C9.396 1.92067 9.21667 1.85 9 1.85C8.78333 1.85 8.60433 1.92067 8.463 2.062C8.321 2.204 8.25 2.38333 8.25 2.6C8.25 2.81667 8.321 2.99567 8.463 3.137C8.60433 3.279 8.78333 3.35 9 3.35Z" fill="black" fill-opacity="0.88"/>
</svg>
