<svg width="6" height="12" viewBox="0 0 6 12" fill="none" xmlns="http://www.w3.org/2000/svg">
<path d="M2.49992 11.8334V10.4334C1.92214 10.3334 1.42503 10.1085 1.00858 9.75875C0.591696 9.40853 0.283252 8.91675 0.083252 8.28341L0.999919 7.90008C1.1777 8.4223 1.43325 8.81941 1.76659 9.09141C2.09992 9.36386 2.54436 9.50008 3.09992 9.50008C3.5777 9.50008 3.99992 9.3863 4.36659 9.15875C4.73325 8.93075 4.91659 8.56675 4.91659 8.06675C4.91659 7.63341 4.78036 7.28897 4.50792 7.03341C4.23592 6.77786 3.66659 6.51119 2.79992 6.23341C1.88881 5.94453 1.25547 5.60564 0.899919 5.21675C0.544363 4.82786 0.366585 4.34453 0.366585 3.76675C0.366585 3.10008 0.602807 2.5723 1.07525 2.18341C1.54725 1.79453 2.02214 1.57786 2.49992 1.53341V0.166748H3.49992V1.53341C4.01103 1.61119 4.43881 1.78053 4.78325 2.04141C5.1277 2.30275 5.39992 2.64453 5.59992 3.06675L4.68325 3.48341C4.53881 3.16119 4.33614 2.91119 4.07525 2.73341C3.81392 2.55564 3.46659 2.46675 3.03325 2.46675C2.53325 2.46675 2.13059 2.58897 1.82525 2.83341C1.51947 3.07786 1.36659 3.38897 1.36659 3.76675C1.36659 4.15564 1.52214 4.46675 1.83325 4.70008C2.14436 4.93341 2.7277 5.17786 3.58325 5.43341C4.37214 5.66675 4.95814 6.00564 5.34125 6.45008C5.72481 6.89453 5.91659 7.42786 5.91659 8.05008C5.91659 8.7723 5.68325 9.33608 5.21659 9.74141C4.74992 10.1472 4.1777 10.389 3.49992 10.4667V11.8334H2.49992Z" fill="black" fill-opacity="0.88"/>
</svg>
