<svg width="6" height="12" viewBox="0 0 6 12" fill="none" xmlns="http://www.w3.org/2000/svg">
<path d="M2.49967 11.8334V10.4334C1.9219 10.3334 1.42479 10.1085 1.00834 9.75875C0.591452 9.40853 0.283008 8.91675 0.0830078 8.28341L0.999674 7.90008C1.17745 8.4223 1.43301 8.81941 1.76634 9.09141C2.09967 9.36386 2.54412 9.50008 3.09967 9.50008C3.57745 9.50008 3.99967 9.3863 4.36634 9.15875C4.73301 8.93075 4.91634 8.56675 4.91634 8.06675C4.91634 7.63341 4.78012 7.28897 4.50767 7.03341C4.23567 6.77786 3.66634 6.51119 2.79967 6.23341C1.88856 5.94453 1.25523 5.60564 0.899675 5.21675C0.544119 4.82786 0.366341 4.34453 0.366341 3.76675C0.366341 3.10008 0.602563 2.5723 1.07501 2.18341C1.54701 1.79453 2.0219 1.57786 2.49967 1.53341V0.166748H3.49967V1.53341C4.01079 1.61119 4.43856 1.78053 4.78301 2.04141C5.12745 2.30275 5.39967 2.64453 5.59967 3.06675L4.68301 3.48341C4.53856 3.16119 4.3359 2.91119 4.07501 2.73341C3.81367 2.55564 3.46634 2.46675 3.03301 2.46675C2.53301 2.46675 2.13034 2.58897 1.82501 2.83341C1.51923 3.07786 1.36634 3.38897 1.36634 3.76675C1.36634 4.15564 1.5219 4.46675 1.83301 4.70008C2.14412 4.93341 2.72745 5.17786 3.58301 5.43341C4.3719 5.66675 4.9579 6.00564 5.34101 6.45008C5.72456 6.89453 5.91634 7.42786 5.91634 8.05008C5.91634 8.7723 5.68301 9.33608 5.21634 9.74141C4.74967 10.1472 4.17745 10.389 3.49967 10.4667V11.8334H2.49967Z" fill="white" fill-opacity="0.88"/>
</svg>
