<svg width="8" height="14" viewBox="0 0 8 14" fill="none" xmlns="http://www.w3.org/2000/svg">
<path d="M1.56387 13.2665C1.38609 13.2665 1.24164 13.208 1.13053 13.0912C1.01942 12.9747 0.963867 12.8332 0.963867 12.6665V2.54982C0.963867 2.37204 1.01942 2.2276 1.13053 2.11649C1.24164 2.00538 1.38609 1.94982 1.56387 1.94982H2.76387V0.733154H5.23053V1.94982H6.43053C6.60831 1.94982 6.75276 2.00538 6.86387 2.11649C6.97498 2.2276 7.03053 2.37204 7.03053 2.54982V12.6665C7.03053 12.8332 6.97498 12.9747 6.86387 13.0912C6.75276 13.208 6.60831 13.2665 6.43053 13.2665H1.56387ZM1.96387 6.93315H6.03053V2.93315H1.96387V6.93315Z" fill="white" fill-opacity="0.88"/>
</svg>
