<svg width="8" height="14" viewBox="0 0 8 14" fill="none" xmlns="http://www.w3.org/2000/svg">
<path d="M1.56362 13.2665C1.38585 13.2665 1.2414 13.208 1.13029 13.0912C1.01918 12.9747 0.963623 12.8332 0.963623 12.6665V2.54982C0.963623 2.37204 1.01918 2.2276 1.13029 2.11649C1.2414 2.00538 1.38585 1.94982 1.56362 1.94982H2.76362V0.733154H5.23029V1.94982H6.43029C6.60807 1.94982 6.75251 2.00538 6.86362 2.11649C6.97473 2.2276 7.03029 2.37204 7.03029 2.54982V12.6665C7.03029 12.8332 6.97473 12.9747 6.86362 13.0912C6.75251 13.208 6.60807 13.2665 6.43029 13.2665H1.56362ZM1.96362 6.93315H6.03029V2.93315H1.96362V6.93315Z" fill="black" fill-opacity="0.88"/>
</svg>
