<svg width="18" height="16" viewBox="0 0 18 16" fill="none" xmlns="http://www.w3.org/2000/svg">
<path d="M2.625 13.5V14.75C2.625 14.9667 2.55 15.146 2.4 15.288C2.25 15.4293 2.075 15.5 1.875 15.5H1.25C1.03333 15.5 0.854333 15.4293 0.713 15.288C0.571 15.146 0.5 14.9667 0.5 14.75V7.075L2.55 1.25C2.61667 1.01667 2.75 0.833333 2.95 0.7C3.15 0.566666 3.375 0.5 3.625 0.5H14.425C14.6583 0.5 14.8707 0.571 15.062 0.713C15.254 0.854333 15.3833 1.03333 15.45 1.25L17.5 7.075V14.75C17.5 14.9667 17.4293 15.146 17.288 15.288C17.146 15.4293 16.9667 15.5 16.75 15.5H16.125C15.925 15.5 15.75 15.4293 15.6 15.288C15.45 15.146 15.375 14.9667 15.375 14.75V13.5H2.625ZM2.6 5.575H15.4L14.125 2H3.875L2.6 5.575ZM4.475 10.85C4.825 10.85 5.129 10.7207 5.387 10.462C5.64567 10.204 5.775 9.89167 5.775 9.525C5.775 9.175 5.64567 8.871 5.387 8.613C5.129 8.35433 4.81667 8.225 4.45 8.225C4.1 8.225 3.796 8.35433 3.538 8.613C3.27933 8.871 3.15 9.18333 3.15 9.55C3.15 9.9 3.27933 10.204 3.538 10.462C3.796 10.7207 4.10833 10.85 4.475 10.85ZM13.55 10.85C13.9 10.85 14.204 10.7207 14.462 10.462C14.7207 10.204 14.85 9.89167 14.85 9.525C14.85 9.175 14.7207 8.871 14.462 8.613C14.204 8.35433 13.8917 8.225 13.525 8.225C13.175 8.225 12.871 8.35433 12.613 8.613C12.3543 8.871 12.225 9.18333 12.225 9.55C12.225 9.9 12.3543 10.204 12.613 10.462C12.871 10.7207 13.1833 10.85 13.55 10.85ZM2 12H16V7.075H2V12Z" fill="white" fill-opacity="0.88"/>
</svg>
