<svg width="12" height="11" viewBox="0 0 12 11" fill="none" xmlns="http://www.w3.org/2000/svg">
<path d="M1.74992 9.33342V10.1667C1.74992 10.3112 1.69992 10.4307 1.59992 10.5254C1.49992 10.6196 1.38325 10.6667 1.24992 10.6667H0.833252C0.688808 10.6667 0.569474 10.6196 0.475252 10.5254C0.380585 10.4307 0.333252 10.3112 0.333252 10.1667V5.05008L1.69992 1.16675C1.74436 1.01119 1.83325 0.88897 1.96659 0.800081C2.09992 0.711192 2.24992 0.666748 2.41659 0.666748H9.61658C9.77214 0.666748 9.9137 0.714081 10.0413 0.808748C10.1693 0.90297 10.2555 1.0223 10.2999 1.16675L11.6666 5.05008V10.1667C11.6666 10.3112 11.6195 10.4307 11.5253 10.5254C11.4306 10.6196 11.311 10.6667 11.1666 10.6667H10.7499C10.6166 10.6667 10.4999 10.6196 10.3999 10.5254C10.2999 10.4307 10.2499 10.3112 10.2499 10.1667V9.33342H1.74992ZM1.73325 4.05008H10.2666L9.41659 1.66675H2.58325L1.73325 4.05008ZM2.98325 7.56675C3.21659 7.56675 3.41925 7.48053 3.59125 7.30808C3.7637 7.13608 3.84992 6.92786 3.84992 6.68341C3.84992 6.45008 3.7637 6.24741 3.59125 6.07541C3.41925 5.90297 3.21103 5.81675 2.96659 5.81675C2.73325 5.81675 2.53059 5.90297 2.35859 6.07541C2.18614 6.24741 2.09992 6.45564 2.09992 6.70008C2.09992 6.93341 2.18614 7.13608 2.35859 7.30808C2.53059 7.48053 2.73881 7.56675 2.98325 7.56675ZM9.03325 7.56675C9.26659 7.56675 9.46925 7.48053 9.64125 7.30808C9.8137 7.13608 9.89992 6.92786 9.89992 6.68341C9.89992 6.45008 9.8137 6.24741 9.64125 6.07541C9.46925 5.90297 9.26103 5.81675 9.01659 5.81675C8.78325 5.81675 8.58059 5.90297 8.40859 6.07541C8.23614 6.24741 8.14992 6.45564 8.14992 6.70008C8.14992 6.93341 8.23614 7.13608 8.40859 7.30808C8.58059 7.48053 8.78881 7.56675 9.03325 7.56675ZM1.33325 8.33342H10.6666V5.05008H1.33325V8.33342Z" fill="black" fill-opacity="0.88"/>
</svg>
