<svg width="18" height="20" viewBox="0 0 18 20" fill="none" xmlns="http://www.w3.org/2000/svg">
<path d="M6.7 16.225L5.65 15.175L7.95 12.875L5.65 10.575L6.7 9.525L9 11.825L11.3 9.525L12.35 10.575L10.05 12.875L12.35 15.175L11.3 16.225L9 13.925L6.7 16.225ZM2.3 19.5C1.8 19.5 1.375 19.325 1.025 18.975C0.675 18.625 0.5 18.2 0.5 17.7V4.3C0.5 3.8 0.675 3.375 1.025 3.025C1.375 2.675 1.8 2.5 2.3 2.5H3.7V0.375H5.225V2.5H12.8V0.375H14.3V2.5H15.7C16.2 2.5 16.625 2.675 16.975 3.025C17.325 3.375 17.5 3.8 17.5 4.3V17.7C17.5 18.2 17.325 18.625 16.975 18.975C16.625 19.325 16.2 19.5 15.7 19.5H2.3ZM2.3 18H15.7C15.7667 18 15.8333 17.9667 15.9 17.9C15.9667 17.8333 16 17.7667 16 17.7V8.3H2V17.7C2 17.7667 2.03333 17.8333 2.1 17.9C2.16667 17.9667 2.23333 18 2.3 18ZM2 6.8H16V4.3C16 4.23333 15.9667 4.16667 15.9 4.1C15.8333 4.03333 15.7667 4 15.7 4H2.3C2.23333 4 2.16667 4.03333 2.1 4.1C2.03333 4.16667 2 4.23333 2 4.3V6.8Z" fill="white" fill-opacity="0.88"/>
</svg>
