<svg width="16" height="20" viewBox="0 0 16 20" fill="none" xmlns="http://www.w3.org/2000/svg">
<path d="M8 0C9.25 0 10.3127 0.437333 11.188 1.312C12.0627 2.18733 12.5 3.25 12.5 4.5V6.5H13.7C14.2 6.5 14.625 6.675 14.975 7.025C15.325 7.375 15.5 7.8 15.5 8.3V17.7C15.5 18.2 15.325 18.625 14.975 18.975C14.625 19.325 14.2 19.5 13.7 19.5H2.3C1.8 19.5 1.375 19.325 1.025 18.975C0.675 18.625 0.5 18.2 0.5 17.7V8.3C0.5 7.8 0.675 7.375 1.025 7.025C1.375 6.675 1.8 6.5 2.3 6.5H3.5V4.5C3.5 3.25 3.93733 2.18733 4.812 1.312C5.68733 0.437333 6.75 0 8 0ZM8 1.5C7.16667 1.5 6.45833 1.79167 5.875 2.375C5.29167 2.95833 5 3.66667 5 4.5V6.5H11V4.5C11 3.66667 10.7083 2.95833 10.125 2.375C9.54167 1.79167 8.83333 1.5 8 1.5ZM2.3 18H13.7C13.7833 18 13.8543 17.971 13.913 17.913C13.971 17.8543 14 17.7833 14 17.7V8.3C14 8.21667 13.971 8.14567 13.913 8.087C13.8543 8.029 13.7833 8 13.7 8H2.3C2.21667 8 2.146 8.029 2.088 8.087C2.02933 8.14567 2 8.21667 2 8.3V17.7C2 17.7833 2.02933 17.8543 2.088 17.913C2.146 17.971 2.21667 18 2.3 18ZM8 11.25C7.51667 11.25 7.104 11.4207 6.762 11.762C6.42067 12.104 6.25 12.5167 6.25 13C6.25 13.4833 6.42067 13.896 6.762 14.238C7.104 14.5793 7.51667 14.75 8 14.75C8.48333 14.75 8.896 14.5793 9.238 14.238C9.57933 13.896 9.75 13.4833 9.75 13C9.75 12.5167 9.57933 12.104 9.238 11.762C8.896 11.4207 8.48333 11.25 8 11.25Z" fill="white" fill-opacity="0.88"/>
</svg>
