<svg width="20" height="20" viewBox="0 0 20 20" fill="none" xmlns="http://www.w3.org/2000/svg">
<path d="M8 19.675C5.4 17.4417 3.45833 15.375 2.175 13.475C0.891667 11.575 0.25 9.81667 0.25 8.2C0.25 5.78333 1.02933 3.854 2.588 2.412C4.146 0.970667 5.95 0.25 8 0.25C10.15 0.25 12.004 1.01233 13.562 2.537C15.1207 4.06233 15.85 6.15 15.75 8.8L18.1 6.45L19.15 7.5L15 11.65L10.85 7.5L11.9 6.45L14.25 8.8C14.35 6.68333 13.796 4.97933 12.588 3.688C11.3793 2.396 9.85 1.75 8 1.75C6.25 1.75 4.77067 2.35 3.562 3.55C2.354 4.75 1.75 6.3 1.75 8.2C1.75 9.41667 2.26267 10.8167 3.288 12.4C4.31267 13.9833 5.88333 15.7417 8 17.675C8.33333 17.375 8.68333 17.046 9.05 16.688C9.41667 16.3293 9.74167 16.0083 10.025 15.725C9.90833 15.5417 9.825 15.3457 9.775 15.137C9.725 14.929 9.7 14.7167 9.7 14.5C9.7 13.85 9.921 13.3043 10.363 12.863C10.8043 12.421 11.35 12.2 12 12.2C12.65 12.2 13.196 12.421 13.638 12.863C14.0793 13.3043 14.3 13.85 14.3 14.5C14.3 15.15 14.0793 15.696 13.638 16.138C13.196 16.5793 12.65 16.8 12 16.8C11.85 16.8 11.7083 16.7917 11.575 16.775C11.4417 16.7583 11.3083 16.7167 11.175 16.65C10.7083 17.15 10.2127 17.65 9.688 18.15C9.16267 18.65 8.6 19.1583 8 19.675Z" fill="black" fill-opacity="0.88"/>
</svg>
