<svg width="16" height="16" viewBox="0 0 16 16" fill="none" xmlns="http://www.w3.org/2000/svg">
<path d="M8 7.69995C7.03333 7.69995 6.20833 7.35395 5.525 6.66195C4.84167 5.97062 4.5 5.14995 4.5 4.19995C4.5 3.23328 4.84167 2.40828 5.525 1.72495C6.20833 1.04162 7.03333 0.699951 8 0.699951C8.96667 0.699951 9.79167 1.04162 10.475 1.72495C11.1583 2.40828 11.5 3.23328 11.5 4.19995C11.5 5.14995 11.1583 5.97062 10.475 6.66195C9.79167 7.35395 8.96667 7.69995 8 7.69995ZM0.5 15.3V13.075C0.5 12.5916 0.633333 12.1416 0.9 11.725C1.16667 11.3083 1.525 10.9833 1.975 10.75C2.95833 10.2666 3.95433 9.90395 4.963 9.66195C5.971 9.42062 6.98333 9.29995 8 9.29995C9.01667 9.29995 10.0293 9.42062 11.038 9.66195C12.046 9.90395 13.0417 10.2666 14.025 10.75C14.475 10.9833 14.8333 11.3083 15.1 11.725C15.3667 12.1416 15.5 12.5916 15.5 13.075V15.3H0.5ZM2 13.8H14V13.075C14 12.875 13.9417 12.6916 13.825 12.525C13.7083 12.3583 13.55 12.2166 13.35 12.1C12.4833 11.6833 11.6043 11.3623 10.713 11.137C9.821 10.9123 8.91667 10.8 8 10.8C7.08333 10.8 6.179 10.9123 5.287 11.137C4.39567 11.3623 3.51667 11.6833 2.65 12.1C2.45 12.2166 2.29167 12.3583 2.175 12.525C2.05833 12.6916 2 12.875 2 13.075V13.8ZM8 6.19995C8.55 6.19995 9.021 6.00395 9.413 5.61195C9.80433 5.22062 10 4.74995 10 4.19995C10 3.64995 9.80433 3.17895 9.413 2.78695C9.021 2.39562 8.55 2.19995 8 2.19995C7.45 2.19995 6.97933 2.39562 6.588 2.78695C6.196 3.17895 6 3.64995 6 4.19995C6 4.74995 6.196 5.22062 6.588 5.61195C6.97933 6.00395 7.45 6.19995 8 6.19995Z" fill="black" fill-opacity="0.88"/>
</svg>
