<svg width="16" height="16" viewBox="0 0 16 16" fill="none" xmlns="http://www.w3.org/2000/svg">
<path d="M8 7.7002C7.03333 7.7002 6.20833 7.3542 5.525 6.6622C4.84167 5.97086 4.5 5.1502 4.5 4.2002C4.5 3.23353 4.84167 2.40853 5.525 1.7252C6.20833 1.04186 7.03333 0.700195 8 0.700195C8.96667 0.700195 9.79167 1.04186 10.475 1.7252C11.1583 2.40853 11.5 3.23353 11.5 4.2002C11.5 5.1502 11.1583 5.97086 10.475 6.6622C9.79167 7.3542 8.96667 7.7002 8 7.7002ZM0.5 15.3002V13.0752C0.5 12.5919 0.633333 12.1419 0.9 11.7252C1.16667 11.3085 1.525 10.9835 1.975 10.7502C2.95833 10.2669 3.95433 9.90419 4.963 9.6622C5.971 9.42086 6.98333 9.3002 8 9.3002C9.01667 9.3002 10.0293 9.42086 11.038 9.6622C12.046 9.90419 13.0417 10.2669 14.025 10.7502C14.475 10.9835 14.8333 11.3085 15.1 11.7252C15.3667 12.1419 15.5 12.5919 15.5 13.0752V15.3002H0.5ZM2 13.8002H14V13.0752C14 12.8752 13.9417 12.6919 13.825 12.5252C13.7083 12.3585 13.55 12.2169 13.35 12.1002C12.4833 11.6835 11.6043 11.3625 10.713 11.1372C9.821 10.9125 8.91667 10.8002 8 10.8002C7.08333 10.8002 6.179 10.9125 5.287 11.1372C4.39567 11.3625 3.51667 11.6835 2.65 12.1002C2.45 12.2169 2.29167 12.3585 2.175 12.5252C2.05833 12.6919 2 12.8752 2 13.0752V13.8002ZM8 6.2002C8.55 6.2002 9.021 6.0042 9.413 5.6122C9.80433 5.22086 10 4.7502 10 4.2002C10 3.6502 9.80433 3.1792 9.413 2.7872C9.021 2.39586 8.55 2.2002 8 2.2002C7.45 2.2002 6.97933 2.39586 6.588 2.7872C6.196 3.1792 6 3.6502 6 4.2002C6 4.7502 6.196 5.22086 6.588 5.6122C6.97933 6.0042 7.45 6.2002 8 6.2002Z" fill="white" fill-opacity="0.88"/>
</svg>
