<svg width="16" height="18" viewBox="0 0 16 18" fill="none" xmlns="http://www.w3.org/2000/svg">
<path d="M7 17.4251C5.11667 17.1918 3.56267 16.3708 2.338 14.9621C1.11267 13.5541 0.5 11.9001 0.5 10.0001C0.5 8.98343 0.7 8.00843 1.1 7.0751C1.5 6.14176 2.06667 5.3251 2.8 4.6251L3.85 5.7001C3.23333 6.2501 2.771 6.89576 2.463 7.6371C2.15433 8.3791 2 9.16676 2 10.0001C2 11.4668 2.46667 12.7584 3.4 13.8751C4.33333 14.9918 5.53333 15.6751 7 15.9251V17.4251ZM9 17.4501V15.9501C10.45 15.6501 11.6457 14.9501 12.587 13.8501C13.529 12.7501 14 11.4668 14 10.0001C14 8.33343 13.4167 6.91676 12.25 5.7501C11.0833 4.58343 9.66667 4.0001 8 4.0001H7.65L9 5.3501L7.95 6.4001L4.8 3.2501L7.95 0.100098L9 1.1501L7.65 2.5001H8C10.1 2.5001 11.875 3.2251 13.325 4.6751C14.775 6.1251 15.5 7.9001 15.5 10.0001C15.5 11.8834 14.8833 13.5251 13.65 14.9251C12.4167 16.3251 10.8667 17.1668 9 17.4501Z" fill="#0C72C0"/>
</svg>
