<svg width="20" height="19" viewBox="0 0 20 19" fill="none" xmlns="http://www.w3.org/2000/svg">
<path d="M14 8.875C14.25 8.875 14.4583 8.79167 14.625 8.625C14.7917 8.45833 14.875 8.25 14.875 8C14.875 7.75 14.7917 7.54167 14.625 7.375C14.4583 7.20833 14.25 7.125 14 7.125C13.75 7.125 13.5417 7.20833 13.375 7.375C13.2083 7.54167 13.125 7.75 13.125 8C13.125 8.25 13.2083 8.45833 13.375 8.625C13.5417 8.79167 13.75 8.875 14 8.875ZM6 6.75H11V5.25H6V6.75ZM2.875 18.5C2.375 16.8167 1.975 15.4 1.675 14.25C1.375 13.1 1.13767 12.1167 0.963 11.3C0.787667 10.4833 0.666667 9.78733 0.6 9.212C0.533333 8.63733 0.5 8.06667 0.5 7.5C0.5 6.1 0.983333 4.91667 1.95 3.95C2.91667 2.98333 4.1 2.5 5.5 2.5H10.75C11.2 1.9 11.75 1.41667 12.4 1.05C13.05 0.683333 13.75 0.5 14.5 0.5C14.7833 0.5 15.0207 0.595667 15.212 0.787C15.404 0.979 15.5 1.21667 15.5 1.5C15.5 1.56667 15.4917 1.63333 15.475 1.7C15.4583 1.76667 15.4417 1.83333 15.425 1.9C15.3417 2.08333 15.2667 2.29167 15.2 2.525C15.1333 2.75833 15.0667 3.05 15 3.4L17.625 6H19.5V12.1L16.775 13L15.125 18.5H10.5V16.5H7.5V18.5H2.875ZM4 17H6V15H12V17H14L15.55 11.85L18 11.025V7.5H17L13.5 4C13.5 3.68333 13.5207 3.36233 13.562 3.037C13.604 2.71233 13.675 2.4 13.775 2.1C13.3083 2.23333 12.8877 2.47067 12.513 2.812C12.1377 3.154 11.8583 3.55 11.675 4H5.5C4.53333 4 3.70833 4.34167 3.025 5.025C2.34167 5.70833 2 6.53333 2 7.5C2 8.18333 2.175 9.354 2.525 11.012C2.875 12.6707 3.36667 14.6667 4 17Z" fill="black" fill-opacity="0.88"/>
</svg>
