<svg width="14" height="12" viewBox="0 0 14 12" fill="none" xmlns="http://www.w3.org/2000/svg">
<path d="M1.99992 7.66667C1.53325 7.66667 1.13881 7.50556 0.816585 7.18333C0.494363 6.86111 0.333252 6.46667 0.333252 6C0.333252 5.53333 0.494363 5.13889 0.816585 4.81667C1.13881 4.49444 1.53325 4.33333 1.99992 4.33333V2.66667C1.99992 2.38889 2.09725 2.15289 2.29192 1.95867C2.48614 1.764 2.72214 1.66667 2.99992 1.66667H5.33325C5.33325 1.2 5.49436 0.805556 5.81659 0.483333C6.13881 0.161111 6.53325 0 6.99992 0C7.46659 0 7.86103 0.161111 8.18325 0.483333C8.50547 0.805556 8.66659 1.2 8.66659 1.66667H10.9999C11.2777 1.66667 11.5137 1.764 11.7079 1.95867C11.9026 2.15289 11.9999 2.38889 11.9999 2.66667V4.33333C12.4666 4.33333 12.861 4.49444 13.1833 4.81667C13.5055 5.13889 13.6666 5.53333 13.6666 6C13.6666 6.46667 13.5055 6.86111 13.1833 7.18333C12.861 7.50556 12.4666 7.66667 11.9999 7.66667V10.6667C11.9999 10.9444 11.9026 11.1804 11.7079 11.3747C11.5137 11.5693 11.2777 11.6667 10.9999 11.6667H2.99992C2.72214 11.6667 2.48614 11.5693 2.29192 11.3747C2.09725 11.1804 1.99992 10.9444 1.99992 10.6667V7.66667ZM4.99992 6.5C5.23325 6.5 5.43036 6.41933 5.59125 6.258C5.75259 6.09711 5.83325 5.9 5.83325 5.66667C5.83325 5.43333 5.75259 5.23622 5.59125 5.07533C5.43036 4.914 5.23325 4.83333 4.99992 4.83333C4.76659 4.83333 4.56947 4.914 4.40859 5.07533C4.24725 5.23622 4.16659 5.43333 4.16659 5.66667C4.16659 5.9 4.24725 6.09711 4.40859 6.258C4.56947 6.41933 4.76659 6.5 4.99992 6.5ZM8.99992 6.5C9.23325 6.5 9.43036 6.41933 9.59125 6.258C9.75259 6.09711 9.83325 5.9 9.83325 5.66667C9.83325 5.43333 9.75259 5.23622 9.59125 5.07533C9.43036 4.914 9.23325 4.83333 8.99992 4.83333C8.76659 4.83333 8.56947 4.914 8.40859 5.07533C8.24725 5.23622 8.16659 5.43333 8.16659 5.66667C8.16659 5.9 8.24725 6.09711 8.40859 6.258C8.56947 6.41933 8.76659 6.5 8.99992 6.5ZM4.49992 9.16667H9.49992V8.16667H4.49992V9.16667ZM2.99992 10.6667H10.9999V2.66667H2.99992V10.6667Z" fill="black" fill-opacity="0.88"/>
</svg>
