<svg width="14" height="12" viewBox="0 0 14 12" fill="none" xmlns="http://www.w3.org/2000/svg">
<path d="M1.99967 7.66667C1.53301 7.66667 1.13856 7.50556 0.816341 7.18333C0.494119 6.86111 0.333008 6.46667 0.333008 6C0.333008 5.53333 0.494119 5.13889 0.816341 4.81667C1.13856 4.49444 1.53301 4.33333 1.99967 4.33333V2.66667C1.99967 2.38889 2.09701 2.15289 2.29167 1.95867C2.4859 1.764 2.7219 1.66667 2.99967 1.66667H5.33301C5.33301 1.2 5.49412 0.805556 5.81634 0.483333C6.13856 0.161111 6.53301 0 6.99967 0C7.46634 0 7.86079 0.161111 8.18301 0.483333C8.50523 0.805556 8.66634 1.2 8.66634 1.66667H10.9997C11.2775 1.66667 11.5135 1.764 11.7077 1.95867C11.9023 2.15289 11.9997 2.38889 11.9997 2.66667V4.33333C12.4663 4.33333 12.8608 4.49444 13.183 4.81667C13.5052 5.13889 13.6663 5.53333 13.6663 6C13.6663 6.46667 13.5052 6.86111 13.183 7.18333C12.8608 7.50556 12.4663 7.66667 11.9997 7.66667V10.6667C11.9997 10.9444 11.9023 11.1804 11.7077 11.3747C11.5135 11.5693 11.2775 11.6667 10.9997 11.6667H2.99967C2.7219 11.6667 2.4859 11.5693 2.29167 11.3747C2.09701 11.1804 1.99967 10.9444 1.99967 10.6667V7.66667ZM4.99967 6.5C5.23301 6.5 5.43012 6.41933 5.59101 6.258C5.75234 6.09711 5.83301 5.9 5.83301 5.66667C5.83301 5.43333 5.75234 5.23622 5.59101 5.07533C5.43012 4.914 5.23301 4.83333 4.99967 4.83333C4.76634 4.83333 4.56923 4.914 4.40834 5.07533C4.24701 5.23622 4.16634 5.43333 4.16634 5.66667C4.16634 5.9 4.24701 6.09711 4.40834 6.258C4.56923 6.41933 4.76634 6.5 4.99967 6.5ZM8.99967 6.5C9.23301 6.5 9.43012 6.41933 9.59101 6.258C9.75234 6.09711 9.83301 5.9 9.83301 5.66667C9.83301 5.43333 9.75234 5.23622 9.59101 5.07533C9.43012 4.914 9.23301 4.83333 8.99967 4.83333C8.76634 4.83333 8.56923 4.914 8.40834 5.07533C8.24701 5.23622 8.16634 5.43333 8.16634 5.66667C8.16634 5.9 8.24701 6.09711 8.40834 6.258C8.56923 6.41933 8.76634 6.5 8.99967 6.5ZM4.49967 9.16667H9.49967V8.16667H4.49967V9.16667ZM2.99967 10.6667H10.9997V2.66667H2.99967V10.6667Z" fill="white" fill-opacity="0.88"/>
</svg>
