<svg width="14" height="10" viewBox="0 0 14 10" fill="none" xmlns="http://www.w3.org/2000/svg">
<path d="M6.06675 7.23333C6.30008 7.46667 6.60564 7.57778 6.98341 7.56667C7.36119 7.55556 7.63341 7.42222 7.80008 7.16667L11.4167 1.91667L6.16675 5.53333C5.91119 5.7 5.7723 5.96667 5.75008 6.33333C5.72786 6.7 5.83341 7 6.06675 7.23333ZM2.40008 10C2.2223 10 2.05564 9.95822 1.90008 9.87467C1.74453 9.79156 1.61675 9.66667 1.51675 9.5C1.26119 9.05556 1.05564 8.57222 0.900081 8.05C0.744526 7.52778 0.666748 6.95556 0.666748 6.33333C0.666748 5.46667 0.830526 4.65 1.15808 3.88333C1.48608 3.11667 1.9363 2.44444 2.50875 1.86667C3.08075 1.28889 3.75297 0.833333 4.52541 0.5C5.29741 0.166667 6.1223 0 7.00008 0C7.63341 0 8.22786 0.0833333 8.78341 0.25C9.33897 0.416667 9.8723 0.666667 10.3834 1L9.45008 1.61667C9.0723 1.41667 8.67786 1.26378 8.26675 1.158C7.85564 1.05267 7.43341 1 7.00008 1C5.5223 1 4.26408 1.51933 3.22541 2.558C2.1863 3.59711 1.66675 4.85556 1.66675 6.33333C1.66675 6.8 1.73053 7.26111 1.85808 7.71667C1.98608 8.17222 2.16675 8.6 2.40008 9H11.6001C11.8556 8.57778 12.0419 8.13889 12.1587 7.68333C12.2752 7.22778 12.3334 6.75556 12.3334 6.26667C12.3334 5.86667 12.2834 5.46111 12.1834 5.05C12.0834 4.63889 11.9334 4.25 11.7334 3.88333L12.3334 2.95C12.6667 3.48333 12.9141 4.01933 13.0754 4.558C13.2363 5.09711 13.3223 5.66111 13.3334 6.25C13.3445 6.85 13.2779 7.41956 13.1334 7.95867C12.989 8.49733 12.7723 9.02222 12.4834 9.53333C12.3945 9.67778 12.2696 9.79156 12.1087 9.87467C11.9474 9.95822 11.7779 10 11.6001 10H2.40008Z" fill="black" fill-opacity="0.88"/>
</svg>
