<svg width="14" height="10" viewBox="0 0 14 10" fill="none" xmlns="http://www.w3.org/2000/svg">
<path d="M6.06699 7.23333C6.30033 7.46667 6.60588 7.57778 6.98366 7.56667C7.36144 7.55556 7.63366 7.42222 7.80032 7.16667L11.417 1.91667L6.16699 5.53333C5.91144 5.7 5.77255 5.96667 5.75033 6.33333C5.7281 6.7 5.83366 7 6.06699 7.23333ZM2.40033 10C2.22255 10 2.05588 9.95822 1.90033 9.87467C1.74477 9.79156 1.61699 9.66667 1.51699 9.5C1.26144 9.05556 1.05588 8.57222 0.900325 8.05C0.74477 7.52778 0.666992 6.95556 0.666992 6.33333C0.666992 5.46667 0.83077 4.65 1.15833 3.88333C1.48633 3.11667 1.93655 2.44444 2.50899 1.86667C3.08099 1.28889 3.75321 0.833333 4.52566 0.5C5.29766 0.166667 6.12255 0 7.00033 0C7.63366 0 8.2281 0.0833333 8.78366 0.25C9.33921 0.416667 9.87255 0.666667 10.3837 1L9.45033 1.61667C9.07255 1.41667 8.6781 1.26378 8.26699 1.158C7.85588 1.05267 7.43366 1 7.00033 1C5.52255 1 4.26433 1.51933 3.22566 2.558C2.18655 3.59711 1.66699 4.85556 1.66699 6.33333C1.66699 6.8 1.73077 7.26111 1.85833 7.71667C1.98633 8.17222 2.16699 8.6 2.40033 9H11.6003C11.8559 8.57778 12.0421 8.13889 12.159 7.68333C12.2754 7.22778 12.3337 6.75556 12.3337 6.26667C12.3337 5.86667 12.2837 5.46111 12.1837 5.05C12.0837 4.63889 11.9337 4.25 11.7337 3.88333L12.3337 2.95C12.667 3.48333 12.9143 4.01933 13.0757 4.558C13.2365 5.09711 13.3225 5.66111 13.3337 6.25C13.3448 6.85 13.2781 7.41956 13.1337 7.95867C12.9892 8.49733 12.7725 9.02222 12.4837 9.53333C12.3948 9.67778 12.2699 9.79156 12.109 9.87467C11.9477 9.95822 11.7781 10 11.6003 10H2.40033Z" fill="white" fill-opacity="0.88"/>
</svg>
